<svg xmlns="http://www.w3.org/2000/svg" viewBox="0 0 240 240" role="img" aria-labelledby="title desc">
  <title id="title">AI Skill Create icon</title>
  <desc id="desc">A layered skill card, validation check, and creation spark for AI skill authoring.</desc>
  <defs>
    <linearGradient id="bg" x1="30" y1="20" x2="210" y2="220" gradientUnits="userSpaceOnUse">
      <stop offset="0" stop-color="#0F766E"/>
      <stop offset="0.52" stop-color="#2563EB"/>
      <stop offset="1" stop-color="#111827"/>
    </linearGradient>
    <linearGradient id="card" x1="63" y1="55" x2="177" y2="185" gradientUnits="userSpaceOnUse">
      <stop offset="0" stop-color="#F8FAFC"/>
      <stop offset="1" stop-color="#D9EAF7"/>
    </linearGradient>
    <filter id="shadow" x="-20%" y="-20%" width="140%" height="140%">
      <feDropShadow dx="0" dy="12" stdDeviation="10" flood-color="#020617" flood-opacity="0.22"/>
    </filter>
  </defs>
  <rect width="240" height="240" rx="48" fill="url(#bg)"/>
  <path d="M52 64h96a28 28 0 0 1 28 28v84H80a28 28 0 0 1-28-28V64Z" fill="#0B1220" opacity="0.28"/>
  <path d="M64 54h104a28 28 0 0 1 28 28v104H92a28 28 0 0 1-28-28V54Z" fill="url(#card)" filter="url(#shadow)"/>
  <path d="M88 88h70M88 116h46M88 144h36" fill="none" stroke="#164E63" stroke-width="10" stroke-linecap="round"/>
  <path d="m150 141 14 14 30-36" fill="none" stroke="#0F766E" stroke-width="12" stroke-linecap="round" stroke-linejoin="round"/>
  <path d="M183 54v28M169 68h28M55 154v22M44 165h22" fill="none" stroke="#F8FAFC" stroke-width="8" stroke-linecap="round"/>
</svg>
